<?xml version="1.0" encoding="utf-8"?>
<!-- Generator: Adobe Illustrator 22.0.1, SVG Export Plug-In . SVG Version: 6.00 Build 0)  -->
<svg version="1.1" id="Layer_1" xmlns="http://www.w3.org/2000/svg" xmlns:xlink="http://www.w3.org/1999/xlink" x="0px" y="0px"
	 viewBox="0 0 595.3 841.9" style="enable-background:new 0 0 595.3 841.9;" xml:space="preserve">
<style type="text/css">
	.st0{fill:#DEDFE0;stroke:#000000;stroke-miterlimit:10;}
	.st1{fill:#FFFFFF;stroke:#000000;stroke-miterlimit:10;}
	.st2{fill:#D8D9DA;stroke:#000000;stroke-miterlimit:10;}
</style>
<path id="Lataria_do_veiculo" class="st0" d="M486.3,590.2c-23,0-41.6-18.1-41.6-40.5s18.6-40.5,41.6-40.5c2.1,0,4.1,0.2,6.1,0.4V293.5
	c-2,0.3-4,0.4-6.1,0.4c-23,0-41.6-18.1-41.6-40.5s18.6-40.5,41.6-40.5c2.1,0,4.1,0.2,6.1,0.4V201c0-50.1-39.8-90.7-89-90.7H197.2
	c-49.1,0-89,40.6-89,90.7v12.1c1.2-0.1,2.4-0.2,3.7-0.2c23,0,41.6,18.1,41.6,40.5s-18.6,40.5-41.6,40.5c-1.2,0-2.5-0.1-3.7-0.2
	v215.6c1.2-0.1,2.4-0.2,3.7-0.2c23,0,41.6,18.1,41.6,40.5s-18.6,40.5-41.6,40.5c-1.2,0-2.5-0.1-3.7-0.2v40.3
	c0,50.1,39.8,90.7,89,90.7h206.2c49.1,0,89-40.6,89-90.7v-40.6C490.4,590,488.3,590.2,486.3,590.2z"/>
<path id="Farol_dianteiro_esquerdo" class="st1" d="M179.9,123.7l3.1,34.9l64.2-7l-3.4-31l-5.3-4.3C238.5,116.4,184.5,122.6,179.9,123.7
	c-6.7,1.6-17.6,4.9-19.2,6.6c-5.6,7,10.8,29.2,14.6,28.8l7.7-0.5"/>
<path id="Farol_dianteiro_direito" class="st1" d="M428.9,123.7l-3.1,34.9l-64.2-7l3.4-31l5.3-4.3C370.3,116.4,424.2,122.6,428.9,123.7
	c6.7,1.6,17.6,4.9,19.2,6.6c5.6,7-10.8,29.2-14.6,28.8l-7.7-0.5"/>
<path id="Lanterna_traseira_direita" class="st1" d="M430.8,699.2l0.5-26.3h-48.5v23.4l3.6,3.6C386.5,699.9,427.3,699.6,430.8,699.2
	c5.1-0.7,13.5-2.2,14.9-3.4c4.8-4.8-5.7-22.7-8.6-22.7l-5.8-0.3"/>
<path id="Lanterna_traseira_esquerda" class="st1" d="M183,699.2l-0.5-26.3H231v23.4l-3.6,3.6C227.4,699.9,186.6,699.6,183,699.2
	c-5.1-0.7-13.5-2.2-14.9-3.4c-4.8-4.8,5.7-22.7,8.6-22.7l5.8-0.3"/>
<path id="Parachoque_dianteiro_esquerdo" class="st2" d="M89.8,165.5l20.1,0.2c12.8-34.5,50.4-58.6,91.6-59.9h0.8l-3.1-15.7
	C107,93.6,89.8,165.5,89.8,165.5z"/>
<path id="Parachoque_dianteiro_frontal" class="st2" d="M411.4,90.3H309h-2.4H204.3c-0.2,0-0.5,0-0.7,0l2.3,15.7h199.7l6.8-15.7
	C412,90.3,411.7,90.3,411.4,90.3z"/>
<path id="Parachoque_dianteiro_direito" class="st2" d="M417,91l-7.6,15.4h0.3c36,1.8,68.6,25.1,80,58.5l19.6,1.2C509.3,166.1,492.3,95.3,417,91z"
	/>
<path id="Parachoque_traseiro_frontal" class="st2" d="M411.4,741.5H309h-2.4H204.3c-0.2,0-0.5,0-0.7,0l2.3-15.7h199.7l6.8,15.7
	C412,741.5,411.7,741.5,411.4,741.5z"/>
<path id="Parachoque_traseiro_direito" class="st2" d="M417,740.8l-7.6-15.4h0.3c36-1.8,68.6-25.1,80-58.5l19.6-1.2
	C509.3,665.7,492.3,736.5,417,740.8z"/>
<circle id="Calota_dianteira_esquerda" class="st2" cx="112.2" cy="253.5" r="32.8"/>
<ellipse id="Calota_dianteira_direita" transform="matrix(0.1891 -0.982 0.982 0.1891 145.4922 683.1848)" class="st2" cx="486.4" cy="253.5" rx="32.8" ry="32.8"/>
<circle id="Calota_traseira_esquerda" class="st2" cx="112.2" cy="549.7" r="32.8"/>
<ellipse id="Calota_traseira_direita" transform="matrix(0.1602 -0.9871 0.9871 0.1602 -134.1146 941.7672)" class="st2" cx="486.4" cy="549.7" rx="32.8" ry="32.8"/>
<path id="Capo" class="st0" d="M310.5,287.9c-25.5,0-51-0.1-76.5,0.1c-7.3,0.1-14.6,0.5-21.9-0.1c-2.8-0.2-5-0.6-4.5-4.3
	c3.7-26,7.5-52,10.9-78c2.3-17.8,12.3-21.3,27-21.6c33.3-0.5,66.6-0.2,99.9-0.1c7.5,0,15-0.8,22.4,1.1c12.5,3.1,16.3,7.3,18,19.9
	c3.5,25.2,7.1,50.4,10.8,75.6c0.9,6.3,0.1,7.4-6.3,7.4C363.8,287.9,337.1,287.9,310.5,287.9z"/>
<rect id="Teto" x="250.9" y="348.6" class="st0" width="100" height="181.6"/>
<path id="Parabrisa_dianteiro" class="st1" d="M387.5,307.8c0-11.4-16.3-10.8-27.8-10.8H244.4c-11.4,0-27.8-0.7-27.8,10.8
	c0,0,25.1,31.4,27.4,31.6l117.2-1L387.5,307.8z"/>
<path id="Parabrisa_traseiro" class="st1" d="M371.9,560.1c0-12.4-20-22.4-32.3-22.4h-79.7c-12.4,0-32.3,10-32.3,22.4l0,0
	c0,12.4-2.7,22.4,9.7,22.4h123.6C373.2,582.5,371.9,572.5,371.9,560.1L371.9,560.1z"/>
<polygon id="Janela_dianteira_esquerda" class="st1" points="194.5,311.8 194.5,423.3 239.3,423.3 239.3,345.4 212.9,313 "/>
<path id="Porta_dianteira_esquerda" class="st0" d="M188.6,423.3V311.8c0,0-31-10.3-35.6-8s-11.5,108-5.7,117.2
	C153,430.2,188.6,423.3,188.6,423.3z"/>
<path id="Porta_dianteira_direita" class="st0" d="M411,423.3V311.8c0,0,31-10.3,35.6-8s11.5,108,5.7,117.2S411,423.3,411,423.3z"/>
<path id="Porta_traseira_direita" class="st0" d="M414.1,554.4V432.5c0,0,28.2-2.3,32.4,3.4c4.2,5.7,2.9,96-1.6,103.8S414.1,554.4,414.1,554.4z
	"/>
<polygon id="Janela_dianteira_direita" class="st1" points="405.6,311.8 405.6,423.3 360.8,423.3 360.8,345.4 387.2,313 "/>
<polygon id="Janela_traseira_direita" class="st1" points="408.8,432.5 408.8,554.4 388.1,554.4 360.5,519.9 360.5,432.5 "/>
<path id="Porta_traseira_esquerda" class="st0" d="M187.4,554.4V432.5c0,0-31-2.3-35.6,3.4s-3.2,96,1.8,103.8
	C158.7,547.5,187.4,554.4,187.4,554.4z"/>
<polygon id="Janela_traseira_esquerda" class="st1" points="192.8,432.5 192.8,554.4 213.5,554.4 241,519.9 241,432.5 "/>
<path id="Portamalas" class="st0" d="M301.9,680.1c-20-1-40.6-5-60.8-10.3c-9.6-2.5-19-5.4-28.3-8.4c-4.4-1.4-5.6-3.4-4.6-7.1
	c4.4-16.2,7.6-32.6,10.8-49c0.9-4.9,1.9-9.9,2.5-14.9c0.4-3,1.8-3.6,5-2.8c27.7,7.1,56.1,9.4,84.9,8.8c22.7-0.5,45.1-2.8,67-8.5
	c4.2-1.1,5.9-0.5,6.5,3.5c3.3,21.3,7.6,42.5,13.2,63.4c0.9,3.5-0.5,5.3-4.3,6.5c-26.8,8.5-54,15.4-82.5,18.3
	C308.5,680,305.8,679.9,301.9,680.1z"/>
<polyline id="Espelho_esquerdo" class="st2" points="109.4,333.6 122,333.6 122,301.5 108.2,293.8 108.2,333.7 "/>
<polyline id="Espelho_direito" class="st2" points="491.1,333.6 478.6,333.6 478.6,301.5 492.3,293.8 492.3,333.7 "/>
<path id="Parachoque_traseiro_esquerdo" class="st2" d="M90,667.8l20.1-0.3c12.4,34.5,48.3,57,89.5,58.3l4,0.3l-2.5,15.7
	C108.9,738.6,90,667.8,90,667.8z"/>
</svg>
